<mxfile host="app.diagrams.net" modified="2022-07-26T12:11:12.632Z" agent="5.0 (Macintosh; Intel Mac OS X 10_15_7) AppleWebKit/537.36 (KHTML, like Gecko) Chrome/103.0.0.0 Safari/537.36" etag="kbJjq6VuScM7anuK4AO5" version="20.0.4" type="github">
  <diagram id="Cv7FXDU7w02ga5VV7YhT" name="Page-1">
    <mxGraphModel dx="96" dy="531" grid="1" gridSize="10" guides="1" tooltips="1" connect="1" arrows="1" fold="1" page="1" pageScale="1" pageWidth="850" pageHeight="1100" math="0" shadow="0">
      <root>
        <mxCell id="0" />
        <mxCell id="1" parent="0" />
        <mxCell id="Yo-WO_uJglbMKzoKxmm8-2" value="" style="group" vertex="1" connectable="0" parent="1">
          <mxGeometry x="920" y="80" width="750" height="640" as="geometry" />
        </mxCell>
        <mxCell id="Yo-WO_uJglbMKzoKxmm8-3" value="" style="rounded=0;whiteSpace=wrap;html=1;fillColor=#f5f5f5;fontColor=#333333;strokeColor=#666666;" vertex="1" parent="Yo-WO_uJglbMKzoKxmm8-2">
          <mxGeometry width="750" height="640" as="geometry" />
        </mxCell>
        <mxCell id="Yo-WO_uJglbMKzoKxmm8-4" value="GPS" style="rounded=1;whiteSpace=wrap;html=1;fillColor=#fff2cc;strokeColor=#d6b656;" vertex="1" parent="Yo-WO_uJglbMKzoKxmm8-2">
          <mxGeometry x="70" y="190" width="150" height="90" as="geometry" />
        </mxCell>
        <mxCell id="Yo-WO_uJglbMKzoKxmm8-5" value="kube-controller-manager&lt;br&gt;garbage-collector" style="ellipse;whiteSpace=wrap;html=1;aspect=fixed;fillColor=#dae8fc;strokeColor=#6c8ebf;" vertex="1" parent="Yo-WO_uJglbMKzoKxmm8-2">
          <mxGeometry x="85" y="20" width="120" height="120" as="geometry" />
        </mxCell>
        <mxCell id="Yo-WO_uJglbMKzoKxmm8-6" value="" style="group" vertex="1" connectable="0" parent="Yo-WO_uJglbMKzoKxmm8-2">
          <mxGeometry x="570" y="90" width="100" height="520" as="geometry" />
        </mxCell>
        <mxCell id="Yo-WO_uJglbMKzoKxmm8-7" value="kube-apiserver" style="ellipse;whiteSpace=wrap;html=1;aspect=fixed;fillColor=#dae8fc;strokeColor=#6c8ebf;" vertex="1" parent="Yo-WO_uJglbMKzoKxmm8-6">
          <mxGeometry width="100" height="100" as="geometry" />
        </mxCell>
        <mxCell id="Yo-WO_uJglbMKzoKxmm8-8" value="kubelet" style="ellipse;whiteSpace=wrap;html=1;aspect=fixed;fillColor=#dae8fc;strokeColor=#6c8ebf;" vertex="1" parent="Yo-WO_uJglbMKzoKxmm8-6">
          <mxGeometry y="210" width="100" height="100" as="geometry" />
        </mxCell>
        <mxCell id="Yo-WO_uJglbMKzoKxmm8-9" value="complete&lt;br&gt;pod" style="ellipse;whiteSpace=wrap;html=1;aspect=fixed;fillColor=#dae8fc;strokeColor=#6c8ebf;" vertex="1" parent="Yo-WO_uJglbMKzoKxmm8-6">
          <mxGeometry y="420" width="100" height="100" as="geometry" />
        </mxCell>
        <mxCell id="Yo-WO_uJglbMKzoKxmm8-10" value="" style="endArrow=classic;startArrow=classic;html=1;rounded=0;entryX=0.5;entryY=1;entryDx=0;entryDy=0;exitX=0.5;exitY=0;exitDx=0;exitDy=0;" edge="1" parent="Yo-WO_uJglbMKzoKxmm8-6" source="Yo-WO_uJglbMKzoKxmm8-8" target="Yo-WO_uJglbMKzoKxmm8-7">
          <mxGeometry width="50" height="50" relative="1" as="geometry">
            <mxPoint x="-100" y="250" as="sourcePoint" />
            <mxPoint x="-50" y="200" as="targetPoint" />
          </mxGeometry>
        </mxCell>
        <mxCell id="Yo-WO_uJglbMKzoKxmm8-11" value="" style="endArrow=classic;startArrow=classic;html=1;rounded=0;entryX=0.5;entryY=1;entryDx=0;entryDy=0;exitX=0.5;exitY=0;exitDx=0;exitDy=0;" edge="1" parent="Yo-WO_uJglbMKzoKxmm8-6">
          <mxGeometry width="50" height="50" relative="1" as="geometry">
            <mxPoint x="49.5" y="420" as="sourcePoint" />
            <mxPoint x="49.5" y="310" as="targetPoint" />
          </mxGeometry>
        </mxCell>
        <mxCell id="Yo-WO_uJglbMKzoKxmm8-12" value="" style="endArrow=classic;startArrow=classic;html=1;rounded=0;entryX=0;entryY=0.5;entryDx=0;entryDy=0;exitX=1;exitY=0.5;exitDx=0;exitDy=0;" edge="1" parent="Yo-WO_uJglbMKzoKxmm8-2" source="Yo-WO_uJglbMKzoKxmm8-5" target="Yo-WO_uJglbMKzoKxmm8-7">
          <mxGeometry width="50" height="50" relative="1" as="geometry">
            <mxPoint x="207.80154639175248" y="82" as="sourcePoint" />
            <mxPoint x="573.0099295999999" y="154.58" as="targetPoint" />
          </mxGeometry>
        </mxCell>
        <mxCell id="Yo-WO_uJglbMKzoKxmm8-13" value="" style="group;rotation=10;" vertex="1" connectable="0" parent="Yo-WO_uJglbMKzoKxmm8-2">
          <mxGeometry x="292.57298969072167" y="86" width="174.85979381443298" height="30" as="geometry" />
        </mxCell>
        <mxCell id="Yo-WO_uJglbMKzoKxmm8-14" value="delete pod" style="text;html=1;strokeColor=none;fillColor=none;align=center;verticalAlign=middle;whiteSpace=wrap;rounded=0;rotation=10;" vertex="1" parent="Yo-WO_uJglbMKzoKxmm8-13">
          <mxGeometry width="174.85979381443298" height="30" as="geometry" />
        </mxCell>
        <mxCell id="Yo-WO_uJglbMKzoKxmm8-15" value="" style="endArrow=classic;startArrow=classic;html=1;entryX=0;entryY=0.5;entryDx=0;entryDy=0;exitX=1;exitY=0.5;exitDx=0;exitDy=0;strokeColor=#FF0000;rounded=0;strokeWidth=3;" edge="1" parent="Yo-WO_uJglbMKzoKxmm8-2" source="Yo-WO_uJglbMKzoKxmm8-4" target="Yo-WO_uJglbMKzoKxmm8-7">
          <mxGeometry width="50" height="50" relative="1" as="geometry">
            <mxPoint x="240" y="260" as="sourcePoint" />
            <mxPoint x="290" y="210" as="targetPoint" />
          </mxGeometry>
        </mxCell>
        <mxCell id="Yo-WO_uJglbMKzoKxmm8-16" value="kubectl logs pod" style="text;html=1;strokeColor=none;fillColor=none;align=center;verticalAlign=middle;whiteSpace=wrap;rounded=0;rotation=-15;" vertex="1" parent="Yo-WO_uJglbMKzoKxmm8-2">
          <mxGeometry x="320" y="170" width="120" height="30" as="geometry" />
        </mxCell>
        <mxCell id="Yo-WO_uJglbMKzoKxmm8-17" value="" style="shape=image;verticalLabelPosition=bottom;labelBackgroundColor=default;verticalAlign=top;aspect=fixed;imageAspect=0;image=data:image/png,iVBORw0KGgoAAAANSUhEUgAAAMgAAADICAYAAACtWK6eAAAAAXNSR0IArs4c6QAAGMxJREFUeF7tnXt0XVWdx7+/c9O0uSeJSgGVEUluqm1DTiyDLwS1Lh3UsdUZIXfNjEsEXQv/gZkBLfiYUWDGB9SBmYF/7Cyx4ujQkaLY+oDRoRQQfFQgJ01a6T1JhWGm0Iomubdpknt+s85Nq21Ic8/ZZ5/Xvb+7Vlb/uPv32N/f/nSffe45exPkIwqIAidVgEQbUUAUOLkCAoiMDlFgEQUEEBkeooAAImNAFFBTQGYQNd3EqkkUEECapNDSTTUFBBA13cSqSRQQQGIoNPf2tlemaDVgnOYSdRrgTnK5g4k6GegkoBPeH1FHLR3mCQDjDIyT98c8zgZNuKBxg3kccJ/LL+MRGh6ejCH9pg4hgGgs//iqVctbppeuZnJ7mbGaiFaDuRfAmRrDHO/qKRANM/MIEUaIjeHZ1iMjnXv2HIooXtO5FUBClHx8hXVeroq3E/B2l9BLwOkh3GkzZeBZgzHMwI+rOfy4c5/9iDbnTeZIAAlQcA+IFhdvZMZbAbwDBDOAeXJNGWUAPyLCA7MGHhVg/JdCAFlEq8Nda7qYqutcwluIcT4IZ/iXNsUtGc8w4WGDsZM4t71t7PGxFGebaGoCyDz5vXWEMbNkPTGvA2g9gNZEKxR98GmAtzHRdnfJzDZZv5wouADi3TTq7W09PNWynsHrwFgPwvLox2UKIzAOgbCNQNvbls1uo+Hh6RRmGWtKTQ1Iucc6F8ClYKwD0BWr8ukPNgbCdgCbzZK9K/3pRpNhUwJSA8PF5SBcHo2sDeaVsQkGNjUjKE0FiIAREtwmBKUpABEwQoIx37yJQGloQKa6+1dWwVfLpZRmQI65Y2zKgW5eNjq4N6IIibttWEAme6xriGkDwKcmrnJDJ0AHmXhje8m+qRG72XCAlLv73wvCNQCf34gFS2+f6GEwbjJHB7+b3hyDZ9YwgNQup4ivAfDh4DKIhUYFbs8x3dQol10NAYhcTmkc3lpcNc5lV6YBOdLd1z9LtBHAhVrqKk50K3BfC/OGpaNDg7odx+Uvs4BMdvd9kObgeGlcYkkcJQUOMPOG9tGhrytZJ2yUSUAqPf0bmfnjCWsn4QMoQERfypcGNwQwSUXTTAEil1SpGDNhksjcJVdmAJFLqjDjMlW2mbrkygQgEz19nzOYPpWqMksyoRRwiT/fURr6dCgnMRinHpByt/VleVQkhpGQRAjGJnPU/mgSof3GTDUglUL/Vga/329npF32FCDQ3Xln8KK0Zp5aQCYL1k4C3pxW4SQvfQow8GC7Y79Fn0d9nlIJSLnHGgZjtb5uiqfUK0AYMUu2t4dYqj6pA2Sy0PccgeQJ3FQNk3iSYfDBdmfotHii+YuSKkDKBYv9pS2tGlkB07FTMy5Tk0i50DcG0FmNXHjpm18FeL/pDKViE41UADJZsB4gIJWLNL8llXZ6FWBgZ7tjeztYJvpJHJByT9/XwHRJoipI8HQqQHyHWRr6UJLJJQpIpWDdzMBVSQogsdOtAAG35B376qSyTAyQyYL1RQKuTarjEjc7CjBwY7tjfyKJjBMBpFywrgfwmSQ6LDEzq8ANpmN/Nu7sYwfk6FO5d8TdUYmXfQWY+ZK4X7yKFZCj73PcJ28BZn+wJtSDAy3MF8b5Cm+sgJQL1r3y/nhCQ6txwt5nOvY74+pObIDIa7JxlbTx48T5+m4sgMi6o/EHbdw9jGs9Ejkgsu6Ie+g0TbxY1iORAyLrjqYZsEl0NPL1SKSAzO14iBuTUE5iNocCTLg2yo2zIwNkbq9cPCS7qzfHQE2ul3Qwx7ggqr2AIwOkXLC+IhtJJzdsmizy7aZjfySKPkcCyNwRBHxPFAmLT1FgQQWY3hfF0QvRAFLo9y6t5HwOGcsxKkAPm87gBboDagdEFua6SyT+/CoQxYJdKyCyMPdbSmkXjQL6F+xaAZFdEKMpu3gNoIDm3Rq1AVI7apnxiwBdkaaiQDQKEF5rluxdOpzrAyR7e+huJuLHqlUMEuFcEL2BgAEdombdBwPfAvNPmbErl0M/M51DwMUMtGeibxpnES2AZG32IEYxP2p/a36xm/2IBQIeZMIXzJL9g/naHFlxdu+sa/wbgDdlAhJNs4geQDI0e9TblMx7uHKG6JsEnJ2JgaApSW/WaHfsYj13kwXr3wn4QL12iX+vaRYJDUiWZg/i6hvyo8M/q1e8I2f1rZ7N0RYAVr22jfC9Xzi8vpbPWv1yzrUMEXBK6vuuYRYJD0hGZg8Gvtnu2L7/5xvvslblDHiQ9Kd+IIRIMAgcx8JMFqxvEPBXIcLGY6phFgkFSKZmD+CTecf+YpDKTBVe8+pZuP9JwGuC2GWlrQocXt8qBesTDHwhE/0MOYuEBeRWMK7IglCuy2/rGBvaETTXqcKaV1W5ugWEc4Laprm9Khxenya6+tYaBt2f5v79PjfCbWbJvlI1V2VAuLe3tTKV2wsgFZsM1xPAOza6fXTon+q1W+j73/WcvaKFDe9y649V7NNmEwYOry+T3X0f894LT1u/TpLPWH5ZdSUND0+r5KsMSKXQfxGD71IJmoRN2EFx+FVWwa3W1iSvTSJ/XTHD6lADpGB5l52Z+c2IQBfnncGtKhoqA1IuWF8FcKlK0KRswr7of/is/m43xx4kr0uqD2Hi6oCj3GO9G4zvh8kjAdvNpmNfphJXCZDxVauW544s2QvCcpWgCdqEftH/+a41Xa3G7BaAXp9gPwKH1gGHF7RSsHZy1s6OZByqLp1Z2blnz6GgwikBMtljXUoMbwbJ3IeB3UuqPLB0/9CIavKVQu8rQbktzHijqo847XTBkbVLq+M1ZsJl7SV7c1DdlQApF/ruAii1R/f6EMGuuih2jtl7fLRdsEmlp+9Mdsm7u3Weqo847ASOYyrzVtMZujio5oEBOdy1pss1qt7dq9agwVLWfjAHY2CZ88SvVPOqrOh/Bbu1NUkqn08SOE6o7LTh5la2jT0+FqTegQGpdFtXMOHWIEHS2paBJ1qQG1jmPP6kao7lleecQTMzWxik/XVP1Zw8O4HjheoR48r8qH1bEF0DA9IAl1cn6sN4bNZwiy8q7d4XRLjj2x59PmkLpWTxKnCcrJLBL7MUALH+rwGPL/ilkcNA25O2owrJZFfvy4xc7k5mJHrwpMCxaAUPmI79siA1DgRIph4xCKLCXNtfGFUqtu0fHA1uOmcx0dN/es7lLUxYq+ojjJ3AUV+9oI8cBQKkXLC8Y9O849Ma9fPzaTdXfEnAhdzxYkysOOc0cme2EOhtcYokcPhW+7OmY9/gt3VQQJrgABz+GcEdyDvDv/Yr4vx2469+9akts0vvZODtqj6C2AkcQdRCoA2vgwJSBpAPlE4GGxPhUYCL+dLQU6rp/+4VZ5/S0lp7wPEdqj782AkcflQ6oU3FdGzTr5VvQBp8/fFCvRiPUI6K+X2DT/sVc367377SeklLC7y7W3+i6mMxO4FDTdUg6xD/gBT6rjNAsR/DqyaBNqufYEnLgLn3sWdUPT7ftebFrTn3TjBrPVdP4FCtCOCCr+9whq7z48E3IJVu6/6k7s746UhUbQj8EFerRXP/yP+qxuAVKzor1TbvsZR3qfo43k7gCKciMXbkR21fN1F8AzJZsA4QcHq41LJpzcCDcKvF9rFh7zcgpc9zK1d25Gda7wTwp0oOjhoJHGHUm7Nl4Nl2x36pH0++AKk93j695KAfh43ahggPVEHFjtLgs6p95P5+szJZe3brPSo+BA4V1Ra2qbbOnOrn8XdfgFQKr7mA4T6oL71sevKm5mqupdix77HnVHvAZ5ybryyb2QLwuiA+BI4gatVvSzDenHeeeKheS1+AlHusy8H4cj1nzfA9g+93W6aLnb/6lfKM+tQrzms7ZenknWC8149mAocflQK2IXzULNmb6ln5AmSyYN1CwN/Wc9Ys3xPw45lpt/iip3f/RrXPvGLF0qML9/ct5kPgUFV4cTsG/rndsa+q590XIOWe/h/qvk1ZL7EMfP+jmVkUX/xr+3nVXI/uDOOtSf5sIR8Ch6qyPuyI7jVLg3XvKvoDpGB5j12c6SNsUzVh4L9m5p7d+q1qx/ncc5ccfn7mTga//3gfAoeqor7tnjId+5X1WtcFhHt72ytTuYl6jpr2e6J781Qp0r5946oaMAZylcKItxFE7TVmgUNVyWB2+WXVDhoenlzMqi4g5cLZrwOMuhs+B0utwVozflhpnS6etnev8n8kDBiVgrWFAfazy3o9BbO8wUK9vun73n296ez+eUhALO+Hre/pS6phPX0/305FGhz0HuhU+jBAVJtAwn0EDt/6vcd07EX3+Ko7g0z09P+FwfwfvkM2d8Pv5adai/TMrkpSMggc/pV3if6yozToPd1w0k9dQOQ3EP+Cz7Wk7b+ZNotnPv3I4aCWYdsLHAEV9PFbSF1AKt19H+PsbFQcUKGImhO+m6fD3sL9SEQRXuBW4AiuNDF/PF9nQ/O6gJQLlveKrfeqrXyCKMC4J99WLaruKh4klMARRK0T2t5gOvair3DUBUR+RVcW3zP8Tv4lrUXatWsmlJdFjAUOdWX9/JpeF5BywfoKgA+rp9HclgS6u81ZWSR8q6pbCYEjtKK3m479kcW8+AHEOy458J6moVNvKAe8Ne8MFcl7mU3TR+DQIuRdpmMves5JfUDkOSwtlQBwV96xPUjkdw5diob14+N5LAEkrMj+7QUQ/1rF01ILIAVLLrFCl0susUJLGI0DDZdYskgPVRpZpIeSL2rj8It0uc0bqkZymzeUfNEa67rNKz8UqtRJfihUUS1um/A/FMqjJio14215Y2pAHjVR0S4+Gz2PmsiGDQErJg8rBhQsueY6HlaUx90D1U8edw8kV7KN9TzuXpAXpnyW8Qf5dhoI88KUzzh1m8mv7HUlOtYg/AtT8sqtD7E1vHLrRfEGtvevvHLrQ3MtTTS8ciubNtSpRG3ThrYi7fup8qYNx+AgoPZckGzaoGX013WiZdMGL0pZtv1ZUGwd2/7Mh+NYIIGk7vgO20DPtj81QOSBxYWKEXrjuJPBIZCEHfs+7H08h+V5qfuw4tEiytajx2nOwH+b0+4Ahdh6tB4cAomPQR6iiZ9f0X0DIhs3/KESDLrfbZkKtXm1XzgEkhAE1DP18RuIb0Dk+IM5tXUcfxAUDoGk3khX+17r8QdygE7tztJOJhoIc4COKhwCiRoEi1lpPUDnaGHlCLYQR7CFhUMg0QeJ9iPYvNTkEE/1Qzx1wSGQ6IEkkkM8y93W34HwD3pSzIyX0MdA64ZDINEwdhh/b47a/+jHk6/bvJ6j8RXWeTkXP/HjtCHaMB6hHBXz+wafDtOfKJ+Lkh8T1SpTNfCmzn32I36sfQPiOSt3W5MgmH4cZ7kNER4FuJgvDT0Vph9RwiEziWJlGGVz1G73ax0UkO+AsOiZen4Dp7cd/4zgDuSdYe9ULeVPHHAIJArlYdxjjtoLHnm3kLdAgFQK1lUM3KyQVlZMfm64uWLb2ONjYRKOEw6BJFilCLg679i3+LUKBEiDr0N2GVUaaNs/OOpXvIXaJQGHQOK/YkHWH57XQIAcXYf8Dwhn+E8pEy1/aeQw0Pak7YTJNkk4BBIflWM8Y47af+Sj5e+bBAYkDYMgSAfrtiU8Ngu3+KLS7n112y7SIE26yN2thQuloktgQCrd1hVMuDXMYEqR7RM55AaWOY8/GSanNMEhM8nJK0mMK/Oj9m1Bah0YkMNda7pco7oXQGuQQClsO1hlKnaODnp9Uf6kEQ6BZMFyThtubmXQGzCBAamtQwp9dx0701t5ZCVraFddFDvH7D1h0kgzHALJ/MryVtMZCnyMhxIgkz3WpcT4apjBlZQtA7uX5Hhg6ZNDI2FyyAIcAskfKsyEy9pL9uagNVcCpPb4+5Ele0FYHjRgwu0PtDBfuHR0aDBMHlmCQzcklYK1k4E3h9EvdlvGoerSmZWde/YcChpbCZC5yyzLm0EuDRowyfbMfEn76NDXw+SQRTh0QlLusd4NxvfDaJiA7WbTsS9TiasMSKXQfxGD71IJmpDNt03Hfn+Y2FmGQyskBetuAH8eRss4bQl0cd4Z3KoSUxkQ7u1trUzlvDtAXSqB47Zxwdd3OEPXqcZtBDh0QTJR6LvOAC16fLKqzhHYjeWXVVeqHsetDEjtMqvHuhWMKyLolHaXrstv6xgb2qHiuJHg0AHJRFffWsOg+1W0jN2GcJtZsq9UjRsWkHPB+IVq8DjtiPhv8qWhfw0asxHhCAtJpafvr5npX4JqmUh7wmvNkr1LNXYoQGqzSLf1ZRAuV00gRrvAC7VGhiMMJJm5QcPYZI7aHw0zxsID0mNlYhYhYDJnuG9Yum/3sB/BmgEOFUiOrDi7t+oaP2XA90tHfvSOpE3I2cPLKTQgGZtFfmI69vn1itFMcASFpFywHgbwpnoaJv69htlDHyAZmUW8DjPwDarObjD3v3CXEu8ePzE+mbkfwjSNRgIeZMIXzJL9g/kuy2etfjnnWjYS8AFN4aJ1o2H20AZIxmYRD5LfAPihAdhVlx+FgbUGqD9L9/ajHV34tgsehIsdOYPe6AIWgHcRcErEcfW41zR76AUkQ7OIniqIl9QqoGn20ApI1maR1BZXEgungMbZQzsgU939K6uEhwA+NVwvxVoUUFGADuYYFywL+Y7P8ZG13MU63uFkj3UNMW5U6Z7YiAJhFGDCte0l+6YwPubbagekdqlV6Pdmkbq3U3V2RHw1uwL0sOkMXqBbhWgA6e5/L4jv0Z2s+BMFTqoA0/vM0cHv6lYoEkDmZhHrKwA+rDth8ScKLKDA7aZjfyQKZSIDRBbsUZRLfL5QAf0L80gX6bJgl0EcpwJRLMxjA+Topda9AC6MUzSJ1TQK3Gc69juj7G1kl1jHkj7S3dc/S3QfgJdG2RHx3XQKaNmAo55qkQPiJTDZ3fdBIrqjXjLyvSjgVwEdG3D4iRULIF4ilZ7+jcz8cT9JSRtRYDEFiOhL+dLghjhUig0QWY/EUc6miBH5uiPWRfrxwWQ90hQDOMpOxrLuSAwQWY9EOXYa33dc645EAfGCT/T0fc5g+lTjl1R6qEsBl/jzHaWhT+vy59dPrGuQ45PK0G4ofrWUdlEpoPkdjyBpJgZI7c5WoX8rg0NtBxqks9I2ewoQ6O68M3hRUpknCkhtTVKwdlLWdgtPqlpNFpeBB9sd+y1JdjtxQGq3f3usYTBWJymExE6ZAoQRs2T3Jp1VKgCZm0n6niOQvKqb9IhIQXwGH2x3hk5LQSp6No7T1ZFywWJdvsRPdhUwHTs1/3GnJpFj5SwX+sYAOiu75ZXM1RXg/aYzlKrjNFIHyNGF+wMEJLo4Uy+yWKoowMDOdsd+q4ptlDapBGRu4d73NTBdEmXnxXdKFCC+wywNfSgl2ZyQRmoB8bKsFKybGbgqjcJJTnoUIOCWvGNfrcebfi+pBuTo5dYXCbhWf9fFY9IKMHBju2N/Iuk8FoufekBql1sF63oAn0mzkJJbYAVuMB079eccZgKQ2kwy91biRnl1N/BATJvBAWbeEPY47rg6lRlAPEGOvk/iQSKbQMQ1QvTGua+FecPS0aFBvW6j85YpQI7JIK/vRjcgovIc52uyOvuQSUDkkkvnEIjcV6YuqearkVlA5JIr8oGtI0DmLqkaCpBjnZk7coE2yLkkOsa0Dh90kIk36j6KQEdmQX1kegY5vrNzewHzNbJhdtAhoL397Tmmm3QeYqM9wwAOGwaQY30u145ewDVyPkmAUaClKT0Mxk1RHEGgJT1FJw0HiFx2KY4EZbPGuZxaSIKGBcTrbO2yC3w1CJcr118MT64AY1MOdHOjXE41HSC/v+zyjqh2cbmAool2xiYY2GSW7F2aPKbWTUPPIPNVLwso4QZiE4FxTKimAkRmFEU+mhCMpgbkBFCAS8FYByBVr3oqDmWdZmMgbAewuRkupU4mXFPOIPPF4N7e1sNTLesZvA6M9SAs1znSMuOLcQiEbQTa3rZsdhsND09nJveIEhVA5gk7vmrVcmNmyXpiXgfQegCtEWmfFrfTAG9jou3ukpltnXv2HEpLYmnIQwBZpAqHu9Z0MVXXMfFagLxD6hvlGLkDAD9ETDuIc9vbxh4fS8NgTGMOAkiAqkx09a01DPJ2WzkfgAdMPoB5kk0rAB4C8LDr8s6OsaEdSSaTpdgCSIhqecDAwNoc01tdQi8Bp4dwp82UgWcNxnCV+AG42CFAqEsrgKhr9wJLb/3SMr10NZPby4zVRLQazN7+smdqDHO8q6dANMzMI0QYITaGZ1uPjMg6Qp/aAog+LU/qiXt72ytTtBowTnOJOg1wJ7ncwUSdDHQS0Anvj6ij5oR5AsA4A+Pk/TGPs0ETLmjcYB4H3Ofyy3iEhocnY0i/qUMIIE1dful8PQUEkHoKyfdNrYAA0tTll87XU0AAqaeQfN/UCgggTV1+6Xw9BQSQegrJ902tgADS1OWXztdTQACpp5B839QK/D96yeFQehka0QAAAABJRU5ErkJggg==;rotation=-15;" vertex="1" parent="Yo-WO_uJglbMKzoKxmm8-2">
          <mxGeometry x="440" y="140" width="25" height="25" as="geometry" />
        </mxCell>
        <mxCell id="Yo-WO_uJglbMKzoKxmm8-21" value="&lt;font style=&quot;font-size: 13px;&quot;&gt;①&lt;/font&gt;" style="text;html=1;strokeColor=none;fillColor=none;align=center;verticalAlign=middle;whiteSpace=wrap;rounded=0;fontSize=13;fontStyle=1" vertex="1" parent="Yo-WO_uJglbMKzoKxmm8-2">
          <mxGeometry x="240" y="65" width="60" height="30" as="geometry" />
        </mxCell>
        <mxCell id="Yo-WO_uJglbMKzoKxmm8-22" value="②" style="text;html=1;strokeColor=none;fillColor=none;align=center;verticalAlign=middle;whiteSpace=wrap;rounded=0;fontSize=13;fontStyle=1" vertex="1" parent="Yo-WO_uJglbMKzoKxmm8-2">
          <mxGeometry x="240" y="190" width="60" height="30" as="geometry" />
        </mxCell>
      </root>
    </mxGraphModel>
  </diagram>
</mxfile>
